<svg width="40" height="40" viewBox="0 0 40 40" fill="none" xmlns="http://www.w3.org/2000/svg">
<rect width="40" height="40" rx="6" fill="url(#paint0_linear_3880_2679)"/>
<g clip-path="url(#clip0_3880_2679)">
<path d="M19.6512 34C27.7428 34 34.3023 27.732 34.3023 20C34.3023 12.268 27.7428 6 19.6512 6C11.5595 6 5 12.268 5 20C5 27.732 11.5595 34 19.6512 34Z" fill="url(#paint1_linear_3880_2679)"/>
<path d="M26.5187 20.8203H12.7833C12.3088 20.8203 11.9248 21.1872 11.9248 21.6406C11.9248 25.7117 15.3905 29.0234 19.651 29.0234C23.9115 29.0234 27.3772 25.7117 27.3772 21.6406C27.3772 21.1872 26.9932 20.8203 26.5187 20.8203ZM14.9211 19.0651C15.0569 19.1412 15.2078 19.1797 15.3587 19.1797C15.5095 19.1797 15.6605 19.1412 15.7963 19.0651C18.4035 17.5919 18.7925 15.9345 18.7925 15.0781C18.7925 13.6979 17.8502 12.6172 16.6464 12.6172C16.13 12.6172 15.6974 12.7862 15.3587 13.0089C15.02 12.7862 14.5874 12.6172 14.071 12.6172C12.8671 12.6172 11.9248 13.6979 11.9248 15.0781C11.9248 15.9345 12.3138 17.5919 14.9211 19.0651ZM23.5057 19.0651C23.6416 19.1412 23.7925 19.1797 23.9433 19.1797C24.0942 19.1797 24.2451 19.1412 24.3809 19.0651C26.9882 17.5919 27.3772 15.9345 27.3772 15.0781C27.3772 13.6979 26.4349 12.6172 25.231 12.6172C24.7146 12.6172 24.282 12.7862 23.9433 13.0089C23.6046 12.7862 23.172 12.6172 22.6556 12.6172C21.4518 12.6172 20.5095 13.6979 20.5095 15.0781C20.5095 15.9345 20.8985 17.5919 23.5057 19.0651Z" fill="url(#paint2_linear_3880_2679)"/>
</g>
<defs>
<linearGradient id="paint0_linear_3880_2679" x1="0" y1="0" x2="20" y2="40" gradientUnits="userSpaceOnUse">
<stop stop-color="#FD7501" stop-opacity="0.41"/>
<stop offset="1" stop-color="#FFD001" stop-opacity="0.24"/>
</linearGradient>
<linearGradient id="paint1_linear_3880_2679" x1="19.6512" y1="34" x2="19.6512" y2="6" gradientUnits="userSpaceOnUse">
<stop stop-color="#FD5900"/>
<stop offset="1" stop-color="#FFDE00"/>
</linearGradient>
<linearGradient id="paint2_linear_3880_2679" x1="19.651" y1="29.0234" x2="19.651" y2="12.6172" gradientUnits="userSpaceOnUse">
<stop stop-color="#FFE59A"/>
<stop offset="1" stop-color="#FFFFD5"/>
</linearGradient>
<clipPath id="clip0_3880_2679">
<rect width="29.3023" height="28" fill="white" transform="translate(5 6)"/>
</clipPath>
</defs>
</svg>
